<?xml version="1.0" standalone="no"?>
<!DOCTYPE svg PUBLIC "-//W3C//DTD SVG 20010904//EN"
 "http://www.w3.org/TR/2001/REC-SVG-20010904/DTD/svg10.dtd">
<svg version="1.0" xmlns="http://www.w3.org/2000/svg"
 width="500.000000pt" height="500.000000pt" viewBox="0 0 500.000000 500.000000"
 preserveAspectRatio="xMidYMid meet">

<g transform="translate(0.000000,500.000000) scale(0.100000,-0.100000)"
fill="#000000" stroke="none">
<path d="M3684 4101 c-110 -28 -208 -112 -255 -219 -65 -145 -67 -146 -200
-109 -200 57 -241 62 -464 62 -179 0 -227 -3 -323 -23 -330 -67 -579 -197
-856 -446 -58 -53 -110 -96 -115 -96 -5 0 -36 23 -68 50 -32 28 -92 67 -132
88 -75 37 -76 37 -201 37 -125 0 -126 0 -201 -37 -93 -46 -158 -112 -202 -206
-29 -61 -32 -75 -32 -168 0 -96 2 -103 38 -176 65 -132 174 -214 334 -253 40
-9 78 -24 85 -32 10 -12 8 -41 -12 -152 -62 -352 -22 -716 100 -926 139 -236
355 -392 706 -508 303 -100 585 -129 898 -92 267 31 490 96 711 206 441 219
753 586 857 1008 28 113 30 309 5 429 -50 233 -162 477 -307 667 -21 28 -43
63 -49 78 -11 27 -8 32 53 90 68 66 94 110 120 196 57 194 -43 412 -230 501
-55 27 -82 33 -148 36 -45 2 -95 0 -112 -5z m-606 -360 c308 -68 560 -207 782
-430 217 -218 354 -461 424 -751 48 -196 43 -341 -16 -508 -162 -461 -543
-818 -1055 -993 -360 -122 -724 -145 -1093 -67 -437 91 -764 297 -893 560 -49
101 -68 168 -93 328 -22 144 -14 414 16 555 141 663 649 1178 1287 1305 146
29 143 28 353 25 151 -3 216 -8 288 -24z"/>
<path d="M3027 3159 c-101 -24 -147 -77 -155 -177 -6 -89 11 -147 92 -306 129
-256 307 -482 432 -548 64 -35 153 -58 220 -58 158 0 332 118 412 279 34 69
37 82 37 161 0 80 -3 92 -39 165 -102 207 -423 403 -777 475 -103 21 -160 24
-222 9z m483 -454 c33 -17 54 -73 40 -109 -25 -67 -113 -65 -153 4 -23 39 -21
67 8 95 28 28 63 32 105 10z"/>
<path d="M1805 2926 c-78 -35 -222 -185 -330 -346 -126 -187 -227 -438 -228
-566 -1 -84 36 -158 124 -245 98 -99 263 -172 380 -171 106 2 207 69 252 169
51 115 62 202 61 493 0 253 -2 269 -26 362 -49 179 -131 319 -186 318 -9 -1
-30 -7 -47 -14z m-41 -737 c56 -66 9 -177 -64 -154 -23 7 -50 53 -50 85 0 44
42 99 77 100 6 0 23 -14 37 -31z"/>
<path d="M2543 2556 c-91 -29 -173 -103 -173 -157 0 -101 115 -153 255 -115
116 31 187 81 206 145 15 50 -9 103 -56 125 -41 20 -172 20 -232 2z"/>
<path d="M2992 2203 c-6 -16 -14 -41 -18 -58 -26 -117 -129 -207 -271 -236
-94 -19 -193 7 -318 85 -80 50 -87 -9 -8 -69 79 -60 142 -79 268 -79 148 0
204 21 296 113 85 85 128 191 103 255 -10 26 -41 19 -52 -11z"/>
</g>
</svg>
